<svg xmlns="http://www.w3.org/2000/svg" viewBox="0 0 16.68 24"><defs><style>.cls-1{fill:#dc143c;}</style></defs><g id="Layer_2" data-name="Layer 2"><g id="Layer_1-2" data-name="Layer 1"><path class="cls-1" d="M12.2,9H7.61V0h4.58a4.49,4.49,0,0,1,0,9ZM9.08,7.51h3.11a3,3,0,0,0,0-6H9.08ZM9.08,9H4.49a4.49,4.49,0,0,1,0-9H9.08V9ZM4.49,1.47a3,3,0,0,0,0,6H7.61v-6Zm4.59,15H4.49a4.49,4.49,0,0,1,0-9H9.08v9ZM4.49,9a3,3,0,0,0,0,6H7.61V9Zm0,15a4.49,4.49,0,1,1,0-9H9.08v4.44A4.56,4.56,0,0,1,4.51,24Zm0-7.51a3,3,0,1,0,0,6,3.09,3.09,0,0,0,3.09-3.07v-3Zm7.7,0H12.1a4.49,4.49,0,0,1,0-9h.09a4.49,4.49,0,0,1,0,9ZM12.1,9a3,3,0,0,0,0,6h.1a3,3,0,0,0,0-6Z"/></g></g></svg>