<svg xmlns="http://www.w3.org/2000/svg" viewBox="0 0 19.19 24"><defs><style>.cls-1{fill:#dc143c;}</style></defs><g id="Layer_2" data-name="Layer 2"><g id="Layer_1-2" data-name="Layer 1"><path class="cls-1" d="M17.05,8.37c-.54-.75-1.78-2.29-3.68-4.57L11.48,1.56c-.16-.2-.32-.39-.49-.58l-.2-.25L10.67.6l0,0h0L10.16,0,9.55.49A13.41,13.41,0,0,0,5.87,5.13a11.43,11.43,0,0,0-1,3.17c0,.25-.09.49-.12.74L4.08,9H4a7.31,7.31,0,0,0-2.28.27l-.32.09-.16.28A9.6,9.6,0,0,0,6,23.31l.23.09.08,0h0A9.52,9.52,0,0,0,9.26,24H9.6a9.57,9.57,0,0,0,3.69-.74h0l.31-.14a9.65,9.65,0,0,0,3.93-3.34,9.53,9.53,0,0,0,1.64-5,10.17,10.17,0,0,0-2.13-6.37M10,15.06a5.47,5.47,0,0,1-.19,3.56A10.58,10.58,0,0,1,7.3,15a14.89,14.89,0,0,1-1-4,5.94,5.94,0,0,1,1.32.62A5.7,5.7,0,0,1,10,15.06Zm.21,6a17.35,17.35,0,0,0,1.51,1,7.83,7.83,0,0,1-2.36.28l-.38,0a9.19,9.19,0,0,0,1.23-1.27Zm1.35-6.44a7.26,7.26,0,0,0-3-4.39,7.52,7.52,0,0,0-2.2-.95c0-.14,0-.27,0-.4s0-.22,0-.32a10.88,10.88,0,0,1,.59-2c.1-.25.21-.5.32-.74h0a10.24,10.24,0,0,1,.61-1.1L8,4.56H8a12,12,0,0,1,2-2.31l.28.34c.68.8,1.31,1.55,1.88,2.24,1.29,1.55,3,3.58,3.61,4.48a8.57,8.57,0,0,1,1.83,5.37,7.93,7.93,0,0,1-1.19,3.94,8.07,8.07,0,0,1-2.8,2.71A15.49,15.49,0,0,1,11,19.73a7,7,0,0,0,.48-5.08Zm-2.58,5.4a7.76,7.76,0,0,1-2.09,1.86l-.24-.1-.06,0a8,8,0,0,1-3.64-3,8,8,0,0,1-.42-8,5.27,5.27,0,0,1,1-.13H4c.22,0,.45,0,.67.07A15.9,15.9,0,0,0,5.8,15.54a12.27,12.27,0,0,0,3.14,4.51Z"/></g></g></svg>