<svg xmlns="http://www.w3.org/2000/svg" viewBox="0 0 1141.75 168.45"><defs><style>.cls-1{fill:#e50914;}</style></defs><g id="Layer_2" data-name="Layer 2"><g id="Layer_1-2" data-name="Layer 1"><path class="cls-1" d="M0,168.42V144.7a27.6,27.6,0,0,0,7.64-.18q7-1,10.4-5.35T21.45,127q0-62.32.11-124.65L45,2.27q-.1,60.55-.22,121.11c0,13-2.84,23-8.44,30.3s-14.12,11.89-25.57,13.84A53.28,53.28,0,0,1,0,168.42Z"/><path class="cls-1" d="M66.86,149.62c-6.08-5.92-9.1-15.24-9.07-27.79q.09-41.2.19-82.41c0-12.55,3.11-22.35,9.24-29.21S82.2,0,93.72,0s20.34,3.3,26.44,9.72,9.11,15.44,9.06,27.17Q129,75.47,128.88,114c-.06,11.74-3.15,21.15-9.28,28.41s-14.93,11.78-26.41,13.45S72.93,155.56,66.86,149.62ZM105.44,118q.16-40.89.32-81.79,0-14.74-12.11-14.53T81.44,37q-.14,41.84-.26,83.66,0,15.12,12.08,13.57T105.44,118Z"/><path class="cls-1" d="M193.2,2,225,1.94q11.78,67.79,23.54,133.19-11.75,1.13-23.48,2.34Q223,124.24,221,110.92v.38q-13.33,1.13-26.67,2.34-2.21,13.78-4.41,27.65-10.87,1.25-21.75,2.55Q180.65,71.47,193.2,2Zm25.09,91.06q-5-33.31-10.07-67.15h-.43Q202.48,60,197.16,94.59,207.72,93.8,218.29,93.05Z"/><path class="cls-1" d="M258.53,1.89l29.46,0q11.19,38.83,22.39,76.57l.43,0,.45-76.57,20.92,0-.72,126.38Q319.39,129,307.3,130q-13.83-45.68-27.64-92.91h-.42q-.3,47.64-.58,95.27-10.47.91-20.93,1.89Z"/><path class="cls-1" d="M347.55,1.79l29.47,0q11.24,37,22.5,73.19H400q.17-36.6.34-73.19l20.92,0L420.7,123q-12.09.54-24.19,1.16-13.92-44-27.78-88.93h-.43q-.24,45.27-.47,90.53-10.49.64-21,1.34Z"/><path class="cls-1" d="M468.6,1.71l62.13,0q0,8.45,0,16.89-19.32,0-38.66.1,0,16.56-.08,33.12,15.18-.15,30.36-.24,0,8.44,0,16.9-15.19.12-30.38.33l-.12,51.8q-11.79.28-23.57.64Z"/><path class="cls-1" d="M539.91,1.69h34.81q18.13,0,26.48,6.66t8.35,20.52c0,2.43,0,4.85,0,7.27q0,18.4-15.37,23.23v.33q8.55,2.05,12.09,8.33t3.55,16.74q0,10.38,0,20.77a63.37,63.37,0,0,0,.44,8.19,17.61,17.61,0,0,0,2.15,6.19q-12-.15-24-.21a22.45,22.45,0,0,1-1.71-5.4,64.43,64.43,0,0,1-.44-9.11q0-10.78,0-21.58,0-8.09-3.32-11.3T571.51,69.1h-8.13q0,25.27,0,50.56-11.77,0-23.57.14Q539.86,60.76,539.91,1.69Zm32,50.56c4.71,0,8.23-1,10.59-2.86s3.52-5.11,3.52-9.6V30.68q0-6.41-2.89-9.27c-1.93-1.91-4.95-2.87-9.08-2.87H563.4q0,16.86,0,33.71Z"/><path class="cls-1" d="M642,1.7h31.81q12.36,59.78,24.78,120.38-11.77-.45-23.56-.81-2.18-11.94-4.35-23.85v.34q-13.38-.31-26.76-.55-2.11,11.58-4.24,23.15-10.92-.23-21.85-.38Q629.93,61,642,1.7Zm25.85,79.81q-5.33-29.61-10.64-59.06h-.42q-5.06,29.4-10.13,58.69Q657.24,81.31,667.82,81.51Z"/><path class="cls-1" d="M707.3,1.72l29.46,0Q748.36,38.28,760,75.52l.42,0L760,1.76l20.92,0,.66,124.49q-12.09-.76-24.18-1.43-14.36-45.7-28.65-90.26h-.42q.2,44.4.38,88.79-10.49-.5-21-.92Q707.53,62.09,707.3,1.72Z"/><path class="cls-1" d="M804.37,121.48c-6-5.8-9-13.54-9-23.33q-.18-33.68-.37-67.34c0-9.79,2.86-17.34,8.74-22.71S818.16,0,829.41,0s19.84,2.75,25.78,8.35,8.94,13.55,9,23.75q0,6.91.08,13.82-11.1-.35-22.21-.65L842,30.36q-.06-12-11.81-12.09T818.48,29.94q.21,35.48.41,70.94.06,11.61,11.82,12.39t11.69-11l-.12-19.69q11.12.57,22.22,1.18l.11,18.48c.06,10.21-2.85,17.89-8.72,23s-14.45,7.12-25.71,6.23S810.31,127.26,804.37,121.48Z"/><path class="cls-1" d="M876,1.88l23.49,0q.4,67,.8,133.91-11.75-1.15-23.49-2.23Q876.36,67.74,876,1.88Z"/><path class="cls-1" d="M920.27,131c-5.87-6.47-8.83-15.1-8.9-26,0-2.57,0-5.14,0-7.72q11.1.81,22.19,1.66,0,4.71.05,9.41c.06,8.89,4.14,13.71,12.24,14.51q6,.58,9.05-2.39c2-2,3.06-5.46,3-10.4a30,30,0,0,0-4.35-15.82c-2.87-4.67-8.16-10.39-15.88-17-9.72-8.45-16.52-15.78-20.4-22.21a40.9,40.9,0,0,1-5.88-21.37c-.07-10.67,2.87-18.87,8.81-24.73S934.8,0,946.19,0C957.43,0,966,3,971.75,9.21s8.72,15.12,8.78,26.67l0,5.91L958.37,41c0-2.4,0-4.8,0-7.21,0-4.8-1-8.33-3.05-10.56s-4.92-3.37-8.77-3.43q-11.73-.18-11.66,13a25.38,25.38,0,0,0,4.45,14.11c2.94,4.45,8.28,9.92,16,16.57,9.86,8.49,16.65,16.3,20.38,23.2a50.07,50.07,0,0,1,5.67,23.86c.06,11.7-2.92,20.37-8.92,25.88s-14.77,7.52-26.28,6.2S926.14,137.42,920.27,131Z"/><path class="cls-1" d="M1000.11,139.89c-5.92-6.94-8.91-15.95-9-27.19Q991,74,990.77,35.37c-.06-11.23,2.85-19.87,8.73-26S1013.94,0,1025.18,0s19.83,3.2,25.76,9.77,8.91,15.91,8.94,27.88l.06,16.2-22.18-1.1-.06-17.37q-.06-14-11.79-14.16t-11.68,13.42l.36,82.08q.06,13.43,11.77,14.82T1038,119.23q0-11.48-.08-23,11.07,1,22.14,2,0,10.83.07,21.67c0,12-2.88,20.88-8.74,26.58s-14.39,7.68-25.59,6.12S1006,146.82,1000.11,139.89Z"/><path class="cls-1" d="M1080,150.36c-6.11-7.73-9.18-17.69-9.22-30.07q-.11-40.68-.22-81.37c0-12.38,3-21.87,9.1-28.66S1094.57,0,1106.1,0s20.35,3.53,26.47,10.81,9.18,17.65,9.18,30.94V129c0,13.3-3,23.14-9.12,29.37s-14.83,8.28-26.29,6.4S1086.09,158.08,1080,150.36Zm38.4-22.7-.09-88.51q0-16-12.17-16.26T1094,38.23q.09,43.2.17,86.4,0,15.59,12.13,17.29T1118.39,127.66Z"/></g></g></svg>