<svg xmlns="http://www.w3.org/2000/svg" viewBox="0 0 21.28 24"><defs><style>.cls-1{fill:#dc143c;}</style></defs><g id="Layer_2" data-name="Layer 2"><g id="Layer_1-2" data-name="Layer 1"><path class="cls-1" d="M10.64,24a1.77,1.77,0,0,1-.92-.25L6.78,22c-.44-.25-.22-.34-.08-.39A5.72,5.72,0,0,0,8,21a.22.22,0,0,1,.22,0l2.25,1.34a.34.34,0,0,0,.28,0l8.79-5.08a.29.29,0,0,0,.14-.24V6.92a.29.29,0,0,0-.14-.24L10.78,1.61a.26.26,0,0,0-.27,0L1.72,6.68a.28.28,0,0,0-.14.24V17.07a.27.27,0,0,0,.14.24L4.13,18.7c1.3.65,2.1-.12,2.1-.89v-10a.26.26,0,0,1,.26-.26H7.61a.26.26,0,0,1,.25.26v10a2.43,2.43,0,0,1-2.6,2.74,3.78,3.78,0,0,1-2-.55L.92,18.68A1.86,1.86,0,0,1,0,17.07V6.92a1.85,1.85,0,0,1,.92-1.6L9.72.24a1.9,1.9,0,0,1,1.85,0l8.79,5.08a1.85,1.85,0,0,1,.92,1.6V17.07a1.88,1.88,0,0,1-.92,1.61l-8.8,5.07A1.74,1.74,0,0,1,10.64,24Zm7.1-10c0-1.9-1.28-2.4-4-2.76s-3-.55-3-1.19S11,8.81,13,8.81c1.81,0,2.48.39,2.75,1.61a.26.26,0,0,0,.25.2h1.14a.23.23,0,0,0,.18-.08.26.26,0,0,0,.07-.2c-.18-2.1-1.57-3.08-4.39-3.08-2.5,0-4,1.06-4,2.84s1.49,2.45,3.89,2.69c2.88.28,3.11.7,3.11,1.27,0,1-.79,1.4-2.64,1.4-2.33,0-2.84-.58-3-1.74a.25.25,0,0,0-.25-.21H9a.25.25,0,0,0-.25.25c0,1.48.81,3.25,4.66,3.25C16.14,17,17.74,15.91,17.74,14Z"/></g></g></svg>