<svg xmlns="http://www.w3.org/2000/svg" viewBox="0 0 749.8 731.02"><defs><style>.cls-1{fill:#dc143c;}</style></defs><g id="Layer_2" data-name="Layer 2"><g id="Layer_1-2" data-name="Layer 1"><path class="cls-1" d="M607.62,485.5a79.48,79.48,0,0,1-34.47,27.65l-.52.2a141.28,141.28,0,0,1-52.65,10c-1.38,0-2.75,0-4.13-.05H515a215.58,215.58,0,0,1-42.8-4.27l1.38.22A127.57,127.57,0,0,1,441,508.9l.78.32a6.1,6.1,0,0,1-3.48-5.5,3,3,0,0,1,0-.42V448.85a3.49,3.49,0,0,1,1.28-2.68h0a2.44,2.44,0,0,1,2.83.3h0a130.15,130.15,0,0,0,37.85,15.13l.9.17a141.44,141.44,0,0,0,36.57,4.68H518c1,.05,2.1.1,3.25.1a59.16,59.16,0,0,0,23.08-4.65l-.4.15a14.53,14.53,0,0,0,8.42-13.13h0a16.54,16.54,0,0,0-7.42-12.45l-.08-.05A133.05,133.05,0,0,0,515.2,422l-1-.28a193,193,0,0,1-45-22.87l.65.42a82.5,82.5,0,0,1-23.55-26.15l-.2-.4A66.42,66.42,0,0,1,439,342.45c0-.58,0-1.15,0-1.73v.08a73.09,73.09,0,0,1,10.82-38.13l-.17.33A77.48,77.48,0,0,1,482,274.45l.47-.2a119.49,119.49,0,0,1,50.48-11c1.67,0,3.35,0,5,.1h-.25a269.53,269.53,0,0,1,40.23,3l-1.48-.18a109.88,109.88,0,0,1,27.6,7.45l-.72-.27a5.6,5.6,0,0,1,3.1,2.77l0,0a14.32,14.32,0,0,1,.63,3.72v51a3.77,3.77,0,0,1-1.55,3.07h0a8.31,8.31,0,0,1-5.68,0l0,0a106.9,106.9,0,0,0-29.27-10.5l-.73-.13A160.17,160.17,0,0,0,535,319.27h-.08c-.65,0-1.4,0-2.15,0a63.15,63.15,0,0,0-17.07,2.32l.45-.1a16.14,16.14,0,0,0-9.65,6.21l0,0a16.23,16.23,0,0,0-2.5,8.43v0a13.81,13.81,0,0,0,3.18,8.15l0,0a35.43,35.43,0,0,0,10.43,8.35l.2.1c7.15,3.75,14.67,7.17,22.15,10.3a224.49,224.49,0,0,1,49,23.35l-.93-.55a73,73,0,0,1,24.48,25.58l.17.35a66.3,66.3,0,0,1,7.2,30.3c0,.64,0,1.3,0,1.94v-.1c0,.41,0,.9,0,1.38a72.35,72.35,0,0,1-12.32,40.47l.17-.25ZM386.1,364a107.27,107.27,0,0,1-49.53,37.88l-.74.25a198.81,198.81,0,0,1-64.93,10.7c-1.87,0-3.78,0-5.65-.08h.27c-7.5,0-12.5,0-15.62-.3s-7.5-.29-13.42-.29V512.38a4.1,4.1,0,0,1,0,.52,3.94,3.94,0,0,1-3.45,3.9H172.43c-2.5,0-3.75-1.27-3.75-4.1V191.28c0-2.18.92-3.43,3.12-3.43,5.3,0,10.3,0,17.5-.3,7.5-.3,15.3-.3,23.75-.62s17.5-.3,27.18-.63,19-.3,28.42-.3c1.58-.05,3.43-.07,5.28-.07a183.3,183.3,0,0,1,60.37,10.15l-1.3-.4a112,112,0,0,1,41.9,25.65l0,0a99.48,99.48,0,0,1,22.57,34.93l.23.67a118,118,0,0,1,7.15,40.6v0c.05,1.37.1,3,.1,4.6a110.67,110.67,0,0,1-19.1,62.32l.25-.4ZM617,0H132.68A132.67,132.67,0,0,0,0,132.67v.13H0V598.35A132.67,132.67,0,0,0,132.68,731H617.12A132.67,132.67,0,0,0,749.8,598.35v-.12h0V132.68A132.68,132.68,0,0,0,617.12,0ZM307.7,253.68a89.91,89.91,0,0,0-33.42-6.33c-1.21,0-2.4,0-3.6.08h.17c-8.12,0-15.3,0-21.25.3-1.4-.1-3-.15-4.68-.15a71.62,71.62,0,0,0-8.47.5l.32,0V353c4.38.3,8.43.62,12.18.62h16.7a116.65,116.65,0,0,0,36.62-5.85l-.82.22A54,54,0,0,0,327,331.55l.05-.08a47.92,47.92,0,0,0,9.77-29.12c0-1.08,0-2.13-.1-3.2v.15c0-.45,0-1,0-1.55a51.18,51.18,0,0,0-7.33-26.48l.13.23A45.46,45.46,0,0,0,308,253.8l-.3-.1Z"/></g></g></svg>