<svg xmlns="http://www.w3.org/2000/svg" viewBox="0 0 24 24"><defs><style>.cls-1{fill:#dc143c;}</style></defs><g id="Layer_2" data-name="Layer 2"><g id="Layer_1-2" data-name="Layer 1"><path class="cls-1" d="M0,0V20.16A3.84,3.84,0,0,0,3.84,24H20.16A3.84,3.84,0,0,0,24,20.16h0V3.84A3.84,3.84,0,0,0,20.16,0H0ZM14.26,13.08c1.56,0,2.28,1.08,2.3,2.64H15a1.93,1.93,0,0,0-.14-.84.56.56,0,0,0-.55-.26c-.46,0-.7.26-.7.84a1.06,1.06,0,0,0,.77,1.08,4,4,0,0,1,1.92,1.29,2.93,2.93,0,0,1,.43,1.66,2.33,2.33,0,0,1-2.5,2.59c-1.65,0-2.4-1-2.42-2.69h1.68c0,.79.26,1.18.79,1.18a.56.56,0,0,0,.55-.24,1.68,1.68,0,0,0,0-1.51A4,4,0,0,0,13.42,18a3.15,3.15,0,0,1-1.23-.94,2.77,2.77,0,0,1-.36-1.53,2.29,2.29,0,0,1,2.43-2.45m5.4,0c1.58,0,2.3,1.08,2.32,2.64h-1.6a1.94,1.94,0,0,0-.17-.84.52.52,0,0,0-.53-.26c-.48,0-.72.26-.72.84a1.08,1.08,0,0,0,.79,1.08,4.11,4.11,0,0,1,1.92,1.29,3.09,3.09,0,0,1,.41,1.66,2.31,2.31,0,0,1-2.47,2.59c-1.68,0-2.43-1.06-2.45-2.69h1.68c0,.75.26,1.18.79,1.18a.56.56,0,0,0,.55-.24,1.54,1.54,0,0,0,0-1.51A3.47,3.47,0,0,0,18.82,18a2.83,2.83,0,0,1-1.2-.94,2.77,2.77,0,0,1-.36-1.53,2.26,2.26,0,0,1,2.4-2.45m-11,0a2.55,2.55,0,0,1,1.84.63,2.61,2.61,0,0,1,.65,2H9.34a.91.91,0,0,0-.44-1A.68.68,0,0,0,8,15a1.72,1.72,0,0,0-.17.86v3.51c0,.74.26,1.13.77,1.13a.65.65,0,0,0,.55-.27,1.28,1.28,0,0,0,.17-.84h1.77a2.4,2.4,0,0,1-2.57,2.69,2.24,2.24,0,0,1-2.47-2.47v-4a2.36,2.36,0,0,1,.7-1.85,2.75,2.75,0,0,1,1.86-.63"/></g></g></svg>