<svg xmlns="http://www.w3.org/2000/svg" viewBox="0 0 49.96 31"><defs><style>.cls-1{fill:#dc143c;}</style></defs><g id="Layer_2" data-name="Layer 2"><g id="Layer_1-2" data-name="Layer 1"><path class="cls-1" d="M49.73,1h-.85A3.39,3.39,0,0,0,46.2,2.32L37.5,13.7,28.8,2.32A3.39,3.39,0,0,0,26.12,1h-.85l11,14.35L25,30h.85a3.35,3.35,0,0,0,2.67-1.32L37.5,17l8.94,11.69A3.35,3.35,0,0,0,49.11,30H50L38.76,15.35ZM21.29,24.24A10.52,10.52,0,0,1,8.9,28.36,10.84,10.84,0,0,1,2,18.11V17H25V12.87A12.74,12.74,0,0,0,13.7.06,12.51,12.51,0,0,0,0,12.5v5.57A12.86,12.86,0,0,0,8.27,30.26,12.54,12.54,0,0,0,24.17,23h-.64A2.69,2.69,0,0,0,21.29,24.24ZM2,12.5a10.5,10.5,0,0,1,21,0V15H2Z"/></g></g></svg>