<svg xmlns="http://www.w3.org/2000/svg" viewBox="0 0 749.8 731.08"><defs><style>.cls-1{fill:#dc143c;}</style></defs><g id="Layer_2" data-name="Layer 2"><g id="Layer_1-2" data-name="Layer 1"><path class="cls-1" d="M558.92,229.63a36.67,36.67,0,0,1-26.24,11c-.78,0-1.55,0-2.3-.07h-.73a38.64,38.64,0,0,1-27-11h0A40.44,40.44,0,0,1,492,202.2c0-.47,0-.95,0-1.4v.08c0-.4,0-.85,0-1.33a36.69,36.69,0,0,1,11.22-26.47h0a40.1,40.1,0,0,1,27.6-10.93h.28c.57,0,1.27-.05,1.95-.05a37.28,37.28,0,0,1,26.47,11h0a39.31,39.31,0,0,1,10.33,26.6c0,.42,0,.85,0,1.25v-.05c0,.42,0,.92,0,1.4a39.47,39.47,0,0,1-11,27.35l0,0Zm6.53,282.09c0,3.43-1.23,5-4,5H500.15l-.35,0a4.36,4.36,0,0,1-4.32-5V271.2c0-3.12,1.27-4.37,4.1-4.37h61.85c2.8,0,4,1.55,4,4.37Zm-106.22,4.7H393.9c-.12,0-.27,0-.42,0A4.71,4.71,0,0,1,389,513v0l-25.62-74.35H247.1l-23.75,73.42a5.52,5.52,0,0,1-5.4,4.43,5.15,5.15,0,0,1-.55,0H158.7c-3.42,0-4.37-1.91-3.42-5.63l100.6-289.63c.92-3.12,1.87-6.55,3.12-10.29a105.6,105.6,0,0,0,1.88-20.15v-.18h0a1.67,1.67,0,0,1,0-.4,3.12,3.12,0,0,1,2.5-3H344.3c2.5,0,3.75.93,4.05,2.5l114,321.78c.95,3.4,0,5-3.13,5ZM617,0H132.68A132.67,132.67,0,0,0,0,132.67v.13H0V598.4A132.68,132.68,0,0,0,132.68,731.08H617.12A132.68,132.68,0,0,0,749.8,598.4v-.12h0V132.68A132.68,132.68,0,0,0,617.12,0ZM329,325.85c-3.12-9.67-5.92-19.05-9.05-28.75s-5.92-18.75-8.42-27.8c-2.5-8.75-4.68-16.87-6.88-24.37H304a375.07,375.07,0,0,1-11.4,43l.77-2.7c-4.67,15-9.37,30.62-14.37,46.22-4.38,15.93-9.05,30.63-13.75,43.75h79.35c-1.88-6.6-4.38-14.37-7.18-22.52-2.8-8.4-5.62-17.48-8.42-26.83Z"/></g></g></svg>