<svg xmlns="http://www.w3.org/2000/svg" viewBox="0 0 24 24"><defs><style>.cls-1{fill:#dc143c;}</style></defs><g id="Layer_2" data-name="Layer 2"><g id="Layer_1-2" data-name="Layer 1"><path class="cls-1" d="M0,0H24V24H0ZM22,18.28c-.17-1.1-.88-2-3-2.88-.73-.34-1.55-.58-1.8-1.14a1.15,1.15,0,0,1,0-.7,1.14,1.14,0,0,1,1.51-.66,1.64,1.64,0,0,1,1,.9c1-.68,1-.68,1.75-1.13a4.29,4.29,0,0,0-.58-.78,3.38,3.38,0,0,0-2.84-1l-.7.09a3.17,3.17,0,0,0-1.71,1,3.14,3.14,0,0,0,.57,4.47c1.36,1,3.36,1.25,3.61,2.21.24,1.17-.87,1.54-2,1.41a2.66,2.66,0,0,1-1.76-1.34l-1.83,1.05A4,4,0,0,0,15,20.86c1.74,1.76,6.09,1.67,6.87-1A3.42,3.42,0,0,0,22,18.21Zm-9-7.25H10.8c0,1.94,0,3.86,0,5.81a9.61,9.61,0,0,1-.13,2.71c-.33.69-1.18.6-1.57.48a1.92,1.92,0,0,1-.83-.86c-.06-.1-.11-.19-.13-.19L6.31,20.1a3.56,3.56,0,0,0,1.32,1.52,4.41,4.41,0,0,0,3.21.4,2.79,2.79,0,0,0,1.81-1.41,7,7,0,0,0,.4-3.34c0-2.06,0-4.11,0-6.18Z"/></g></g></svg>