<svg xmlns="http://www.w3.org/2000/svg" viewBox="0 0 23.17 24"><defs><style>.cls-1{fill:#dc143c;}</style></defs><g id="Layer_2" data-name="Layer 2"><g id="Layer_1-2" data-name="Layer 1"><path class="cls-1" d="M23.14,14.72a.61.61,0,0,0-.05-.12c-.14-.26-.48-.34-1-.23-1.65.34-2.29.13-2.53,0A23.73,23.73,0,0,0,22.6,7.52c.27-1,.79-3.52.12-4.73l-.15-.23A6.76,6.76,0,0,0,17.09,0,9.55,9.55,0,0,0,14,.48L13.46.4A8.19,8.19,0,0,0,12.15.27a5.13,5.13,0,0,0-3.05.84C8.24.79,4.31-.53,1.88,1.19.52,2.15-.11,3.87,0,6.3a32.76,32.76,0,0,0,1.25,5.75,19,19,0,0,0,1.43,3.58A3.61,3.61,0,0,0,4.4,17.42a1.65,1.65,0,0,0,1.86-.73c.8-1,1.59-1.82,2-2.21a3,3,0,0,0,1.39.38h0l-.25.3c-.34.43-.41.52-1.5.75-.31.06-1.13.23-1.15.81a.58.58,0,0,0,.1.32c.22.43.92.61,1,.64A3.57,3.57,0,0,0,11.18,17a21.39,21.39,0,0,0,.35,5.09A2.58,2.58,0,0,0,14,24a4.36,4.36,0,0,0,.83-.09A3.14,3.14,0,0,0,17.68,21c.15-.87.4-2.88.54-4.1a.38.38,0,0,1,.06-.14s.07,0,.42,0h.05l.25,0h0a6.12,6.12,0,0,0,2.53-.43C22.19,16.09,23.35,15.36,23.14,14.72ZM2,11.88A32,32,0,0,1,.74,6.3c-.11-2.17.42-3.68,1.57-4.49,1.83-1.3,4.84-.54,6.1-.13h0c-2,2.05-2,5.54-2,5.75s0,.2,0,.36a15,15,0,0,1-.07,2.92,3.67,3.67,0,0,0,1,3.09l.25.24c-.35.37-1.1,1.19-1.9,2.15-.57.69-1,.55-1.09.51a2.84,2.84,0,0,1-1.24-1.32A17.72,17.72,0,0,1,2,11.88ZM8,17a1.75,1.75,0,0,1-.43-.17A2.45,2.45,0,0,1,8,16.65c1.29-.27,1.49-.46,1.92-1,.1-.13.21-.27.37-.45a.4.4,0,0,0,.07-.13c.17-.15.27-.11.44,0a.81.81,0,0,1,.37.48.55.55,0,0,1,0,.44A2.79,2.79,0,0,1,8,17Zm2.1-4-.06.14a9.7,9.7,0,0,0-.33,1,2.52,2.52,0,0,1-1.81-.8,3,3,0,0,1-.78-2.5,15.85,15.85,0,0,0,.08-3.06c0-.09,0-.16,0-.22a3.9,3.9,0,0,1,2.65-.77,1.07,1.07,0,0,1,.83.92c.58,2.71.08,3.83-.33,4.74A4.28,4.28,0,0,0,10.06,13Zm7.36,4.57c0,.17,0,.37-.06.59l-.15.44a.43.43,0,0,0,0,.11,2.72,2.72,0,0,1-.11.87,4.77,4.77,0,0,0-.18,1.06,2.64,2.64,0,0,1-2.42,2.55c-1.51.33-1.78-.49-2-1.22,0-.07-.05-.15-.08-.23a7.56,7.56,0,0,1-.15-2.55,8.39,8.39,0,0,0-.33-2.65c0-.29,0-.59,0-.89a.43.43,0,0,0,0-.11,1.55,1.55,0,0,0,0-.21,1.42,1.42,0,0,0-.78-.93,1.11,1.11,0,0,0-.72-.09,8.42,8.42,0,0,1,.31-.93l.05-.14c.06-.16.14-.32.21-.5.43-1,1-2.24.38-5.18A1.86,1.86,0,0,0,9.08,6a5.2,5.2,0,0,0-1.71.54l-.2.1A7.49,7.49,0,0,1,8.91,2.19l.3-.28a.39.39,0,0,0,.15-.06A4.37,4.37,0,0,1,12.16,1a8.72,8.72,0,0,1,1.17.08,6.84,6.84,0,0,1,4,2.38A7.89,7.89,0,0,1,18.8,5.93c-1.32-.13-2.22.13-2.68.78-1,1.42.54,4.18,1.28,5.5.14.24.25.45.29.54A5,5,0,0,0,18.47,14l.19.24c-.4.12-1.12.38-1.06,1.72,0,.15,0,.44-.08.81A6.1,6.1,0,0,0,17.42,17.55Zm.89-1.62c0-.83.27-.92.6-1l.13,0,.14.1a4.22,4.22,0,0,0,3,.13,3.92,3.92,0,0,1-.95.6,5.17,5.17,0,0,1-1.75.37A2.24,2.24,0,0,1,18.31,15.93Zm.57-9.27a8.06,8.06,0,0,1-.1,1,7.74,7.74,0,0,0-.13,1.17,8.49,8.49,0,0,0,.09,1.33,4.69,4.69,0,0,1-.21,2.71,3.39,3.39,0,0,1-.18-.39c-.06-.13-.17-.33-.33-.62-.61-1.1-2.06-3.69-1.32-4.74C17.08,6.58,18,6.55,18.88,6.66Zm.23,7L19,13.56l0,0a5.08,5.08,0,0,0,.46-3.44,7.55,7.55,0,0,1-.09-1.22,6.85,6.85,0,0,1,.12-1.09,8,8,0,0,0,.11-1.35.64.64,0,0,0,0-.2A7.68,7.68,0,0,0,17.87,3a7.76,7.76,0,0,0-2.69-2,9.56,9.56,0,0,1,2-.18A6,6,0,0,1,22,3a.86.86,0,0,1,.07.1C22.82,4.48,21.82,9.4,19.11,13.67ZM10.29,7.55A.66.66,0,0,1,9.67,8H9.59a.79.79,0,0,1-.51-.32A.41.41,0,0,1,9,7.37a.22.22,0,0,1,.09-.15.92.92,0,0,1,.61-.09C10,7.18,10.32,7.33,10.29,7.55Zm7.93-.41a.46.46,0,0,1-.15.31.75.75,0,0,1-.41.23h-.07A.59.59,0,0,1,17,7.31c0-.18.26-.31.56-.35S18.2,7,18.22,7.14Z"/></g></g></svg>