<svg xmlns="http://www.w3.org/2000/svg" viewBox="0 0 749.8 731.07"><defs><style>.cls-1{fill:#dc143c;}</style></defs><g id="Layer_2" data-name="Layer 2"><g id="Layer_1-2" data-name="Layer 1"><path class="cls-1" d="M608.55,265.57V326.5c0,2.5-1.55,3.42-5,3.42-1.48-.05-3.2-.1-4.93-.1a135.5,135.5,0,0,0-55.9,12l.85-.35A48.51,48.51,0,0,0,527.67,353l0,.05V512.37c0,3.13-1.25,4.38-4,4.38H462.05c-.2,0-.43,0-.65,0a4.36,4.36,0,0,1-4.33-3.78V338.68l-.29-23.43-.63-24.38c0-7.17-.62-14.05-1.25-21.25a3.17,3.17,0,0,1,0-.45,3.08,3.08,0,0,1,2.2-3h55.64a6.4,6.4,0,0,1,6.23,4.95v.05A92.73,92.73,0,0,1,523,298.65v1.27a117.89,117.89,0,0,1,33.12-26.55l.63-.3a95.65,95.65,0,0,1,47-12.17h.45a2.69,2.69,0,0,1,.5,0,3.91,3.91,0,0,1,3.88,3.45v0ZM395.5,364A107.53,107.53,0,0,1,346,401.87l-.75.25a198.44,198.44,0,0,1-64.92,10.7c-1.88,0-3.78,0-5.65-.07h.27l-15.62-.3-13.43-.3V512.42a4.13,4.13,0,0,1,.05.63,3.76,3.76,0,0,1-3.47,3.75h-60.6c-2.5,0-3.75-1.25-3.75-4V191.27c0-2.17.92-3.42,3.12-3.42l17.5-.3,23.75-.63,27.18-.62,28.42-.3c1.58-.05,3.43-.08,5.28-.08a183.65,183.65,0,0,1,60.37,10.15l-1.3-.4a112,112,0,0,1,41.9,25.65l0,0a99.44,99.44,0,0,1,22.57,34.92l.23.68a117.2,117.2,0,0,1,7.17,40.6h0c.05,1.32.1,2.9.1,4.47a111.23,111.23,0,0,1-19.07,62.48l.25-.4ZM617,0H132.77A132.78,132.78,0,0,0,0,132.8H0V598.4A132.67,132.67,0,0,0,132.68,731.07H617.13A132.67,132.67,0,0,0,749.8,598.4v-.12h0V132.68A132.67,132.67,0,0,0,617.13,0H617ZM317.07,253.7a89.77,89.77,0,0,0-33.4-6.33c-1.22,0-2.42,0-3.62.08h.17q-17-.34-34.05.62v105l12.18.62H275a116.76,116.76,0,0,0,36.63-5.85l-.83.23a53.78,53.78,0,0,0,25.55-16.5l.05-.08a47.93,47.93,0,0,0,9.78-29.12c0-1.08,0-2.13-.1-3.2v.15c.07-1,.12-2.13.12-3.28a45.29,45.29,0,0,0-28.87-42.22l-.3-.1Z"/></g></g></svg>