<svg xmlns="http://www.w3.org/2000/svg" viewBox="0 0 24 21.38"><defs><style>.cls-1{fill:#dc143c;}</style></defs><g id="Layer_2" data-name="Layer 2"><g id="Layer_1-2" data-name="Layer 1"><path class="cls-1" d="M14.23,10.69a2.24,2.24,0,1,1-4.47,0h0a2.24,2.24,0,1,1,4.47,0ZM16.88,0C15.53,0,13.77,1,12,2.62,10.21,1,8.45,0,7.1,0A2.12,2.12,0,0,0,6,.3c-1.38.79-1.69,3.26-1,6.36-3,.94-5,2.45-5,4s2,3.1,5,4c-.7,3.11-.39,5.59,1,6.38a2.12,2.12,0,0,0,1.1.28c1.35,0,3.11-1,4.89-2.63,1.78,1.66,3.54,2.6,4.89,2.6a2.21,2.21,0,0,0,1.1-.27c1.38-.79,1.69-3.26,1-6.37,3-.93,5-2.43,5-4s-2-3.1-5-4c.7-3.11.39-5.59-1-6.38A2.11,2.11,0,0,0,16.88,0Zm0,1.09h0a1.16,1.16,0,0,1,.56.12c.67.39,1,1.84.73,3.71a13.62,13.62,0,0,1-.25,1.44,23.09,23.09,0,0,0-3.11-.54,24.31,24.31,0,0,0-2-2.44c1.59-1.48,3.09-2.3,4.1-2.3Zm-9.77,0c1,0,2.52.81,4.11,2.28a24.26,24.26,0,0,0-2,2.44,23.37,23.37,0,0,0-3.11.54C6,5.88,5.89,5.41,5.83,5c-.23-1.87,0-3.32.71-3.71a1.56,1.56,0,0,1,.56-.13ZM12,4.16c.45.47.91,1,1.36,1.56-.44,0-.9,0-1.35,0s-.91,0-1.36,0A17.62,17.62,0,0,1,12,4.16Zm0,2.63c.74,0,1.48,0,2.2.09.41.58.8,1.2,1.18,1.86s.71,1.29,1,1.95c-.31.65-.64,1.31-1,2s-.77,1.28-1.18,1.87c-.73.06-1.47.09-2.21.09s-1.48,0-2.2-.09c-.41-.58-.8-1.2-1.19-1.86s-.71-1.29-1-2c.3-.65.64-1.31,1-1.95s.77-1.29,1.18-1.87c.73-.06,1.47-.1,2.21-.1ZM8.36,7c-.24.38-.48.76-.7,1.16S7.23,9,7,9.37a20.46,20.46,0,0,1-.68-1.94c.64-.15,1.31-.29,2-.39Zm7.26,0a19.88,19.88,0,0,1,2,.39A20,20,0,0,1,17,9.36c-.2-.39-.41-.78-.64-1.17s-.46-.78-.7-1.15Zm3.07.68c.48.15.94.31,1.37.49,1.74.74,2.85,1.71,2.85,2.48s-1.12,1.74-2.85,2.47a14.32,14.32,0,0,1-1.36.5,22.72,22.72,0,0,0-1.1-3,24,24,0,0,0,1.09-3Zm-13.4,0a24.26,24.26,0,0,0,1.1,3,22.81,22.81,0,0,0-1.08,3,11.52,11.52,0,0,1-1.37-.5c-1.74-.73-2.86-1.7-2.86-2.47S2.2,9,3.94,8.21C4.36,8,4.82,7.87,5.29,7.72ZM17,12A20.62,20.62,0,0,1,17.65,14c-.64.15-1.32.29-2,.39.24-.38.48-.76.71-1.16s.43-.79.63-1.18ZM7,12c.2.39.41.78.64,1.17s.46.78.7,1.15a20.23,20.23,0,0,1-2-.39A20,20,0,0,1,7,12Zm10.89,3a12.86,12.86,0,0,1,.25,1.42c.23,1.87-.05,3.32-.71,3.71a1.08,1.08,0,0,1-.56.13c-1,0-2.52-.81-4.11-2.28a23.34,23.34,0,0,0,2-2.45A20.53,20.53,0,0,0,17.92,15ZM6.09,15a25.15,25.15,0,0,0,3.11.53,24.31,24.31,0,0,0,2,2.44c-1.59,1.49-3.09,2.3-4.11,2.3a1.27,1.27,0,0,1-.55-.13c-.67-.38-1-1.84-.73-3.71A13,13,0,0,1,6.09,15Zm4.56.64c.44,0,.89,0,1.34,0s.92,0,1.36,0A19.38,19.38,0,0,1,12,17.22,19.49,19.49,0,0,1,10.65,15.66Z"/></g></g></svg>